<?xml version="1.0" encoding="iso-8859-1"?>
<!-- Uploaded to: SVG Repo, www.svgrepo.com, Generator: SVG Repo Mixer Tools -->
<svg fill="#000000" height="800px" width="800px" version="1.1" id="Layer_1" xmlns="http://www.w3.org/2000/svg" xmlns:xlink="http://www.w3.org/1999/xlink" 
	 viewBox="0 0 494 494" xml:space="preserve">
<g>
	<path d="M292.945,241.238c28.929-21.001,47.907-55.983,47.907-95.509c0-59.703-43.277-109.027-98.752-115.5V0h-30v29.5h-78.933v435
		H212.1V494h30v-29.5h7.571c61.294,0,111.161-52.128,111.161-116.203C360.833,300.25,332.803,258.918,292.945,241.238z
		 M310.853,145.728c0,43.052-29.869,78.832-68.752,85.195V60.508C280.984,66.873,310.853,102.664,310.853,145.728z M163.167,59.5
		H212.1v172.569h-48.933V59.5z M163.167,434.5V262.069H212.1V434.5H163.167z M249.671,434.5H242.1V262.069h7.571
		c44.752,0,81.161,38.682,81.161,86.228C330.833,395.83,294.424,434.5,249.671,434.5z"/>
</g>
</svg>